Coordinates
version=1
nRows=22
nColumns=24
inDegrees=yes

Units are S.I. units (second, meters, Newtons, ...)
Angles are in degrees.

endheader
time	pelvis_tilt	pelvis_list	pelvis_rotation	pelvis_tx	pelvis_ty	pelvis_tz	hip_flexion_r	hip_adduction_r	hip_rotation_r	knee_angle_r	ankle_angle_r	subtalar_angle_r	mtp_angle_r	hip_flexion_l	hip_adduction_l	hip_rotation_l	knee_angle_l	ankle_angle_l	subtalar_angle_l	mtp_angle_l	lumbar_extension	lumbar_bending	lumbar_rotation
      5.32500000	     -3.85118472	     -1.80583119	     -7.29748520	      0.88283131	      1.00331493	     -0.20247926	    -15.97981638	      3.58693490	      7.85444958	    -10.44823048	     17.64680415	      3.86432501	      0.00000000	     23.45859155	     -2.12118930	     -3.86907438	     -1.30619619	      0.74801601	     -4.65184688	      0.00000000	     -9.73214063	      1.50230664	     10.22228405
      5.33000000	     -3.76020657	     -1.57014444	     -7.28052348	      0.89069248	      1.00291327	     -0.20315613	    -15.99053185	      3.19869430	      7.25920576	    -11.39998222	     17.65832322	      4.91951465	      0.00000000	     23.49909586	     -1.78020429	     -4.01101178	     -2.20737104	      0.33768454	     -4.91233671	      0.00000000	     -9.72715763	      1.20822992	     10.12356576
      5.33500000	     -3.66962393	     -1.30306388	     -7.27155527	      0.89851808	      1.00256921	     -0.20382269	    -15.93734365	      2.77378029	      6.56892246	    -12.45463268	     17.66374361	      6.02340851	      0.00000000	     23.53147914	     -1.41454536	     -4.05155900	     -3.08422739	     -0.22678504	     -5.35422487	      0.00000000	     -9.72915066	      0.86778838	     10.00165107
      5.34000000	     -3.60113283	     -0.96902857	     -7.25837460	      0.90638917	      1.00230056	     -0.20453400	    -15.82750633	      2.27498688	      5.85782354	    -13.54683092	     17.58667255	      7.11084538	      0.00000000	     23.58454078	     -0.97872317	     -4.04849173	     -3.93196547	     -0.95290334	     -5.95950250	      0.00000000	     -9.68787135	      0.46055197	      9.88011738
      5.34500000	     -3.54774278	     -0.59835854	     -7.24115555	      0.91423679	      1.00211774	     -0.20526766	    -15.65115395	      1.73287341	      5.09143990	    -14.71021161	     17.43672646	      8.20633273	      0.00000000	     23.65837614	     -0.50333120	     -3.96154902	     -4.76589467	     -1.75559436	     -6.72779837	      0.00000000	     -9.62992987	      0.01233224	      9.74074379
      5.35000000	     -3.51736617	     -0.17749944	     -7.21384498	      0.92208677	      1.00201788	     -0.20604660	    -15.41129954	      1.13262204	      4.29788525	    -15.92008970	     17.18484154	      9.29017650	      0.00000000	     23.77624692	      0.02871102	     -3.82107710	     -5.62077239	     -2.56057732	     -7.60910686	      0.00000000	     -9.53803639	     -0.48074771	      9.60221157
      5.35500000	     -3.50140964	      0.26768169	     -7.19364268	      0.92986279	      1.00198140	     -0.20679475	    -15.08681921	      0.49947066	      3.45142132	    -17.23542873	     16.86047303	     10.35180178	      0.00000000	     23.92583283	      0.58221635	     -3.57232914	     -6.50931822	     -3.26635274	     -8.58680221	      0.00000000	     -9.43900191	     -1.00697931	      9.43286896
      5.36000000	     -3.50185712	      0.73474362	     -7.16980590	      0.93761951	      1.00201209	     -0.20753376	    -14.69994626	     -0.16364501	      2.60163037	    -18.60935663	     16.40816682	     11.35779782	      0.00000000	     24.12160190	      1.16040199	     -3.31275793	     -7.46614030	     -3.80046262	     -9.54706962	      0.00000000	     -9.31922795	     -1.55758828	      9.25472091
      5.36500000	     -3.51451691	      1.20655098	     -7.15065419	      0.94533142	      1.00209984	     -0.20824329	    -14.24376495	     -0.84356201	      1.74102262	    -20.06096226	     15.82612048	     12.30562962	      0.00000000	     24.35471877	      1.74127287	     -3.05757699	     -8.49433059	     -4.11101887	    -10.42356897	      0.00000000	     -9.19212697	     -2.11321268	      9.06767516
      5.37000000	     -3.53565120	      1.67667944	     -7.13110510	      0.95301116	      1.00222311	     -0.20892007	    -13.72686531	     -1.53378382	      0.88119749	    -21.58056958	     15.10296414	     13.18320802	      0.00000000	     24.61915201	      2.31821659	     -2.85564616	     -9.59176364	     -4.17410340	    -11.15451792	      0.00000000	     -9.05493484	     -2.66697013	      8.87965205
      5.37500000	     -3.63721512	      2.14654436	     -7.09237282	      0.96068998	      1.00227639	     -0.20958208	    -13.07452942	     -2.22126260	      0.02147669	    -23.16746906	     14.21833087	     13.94700273	      0.00000000	     24.96188654	      2.89152358	     -2.60734091	    -10.70423557	     -4.07578256	    -11.79518615	      0.00000000	     -8.81527778	     -3.21833261	      8.70777420
      5.38000000	     -3.61919532	      2.56537501	     -7.08380623	      0.96826077	      1.00249125	     -0.21019980	    -12.49604278	     -2.89684235	     -0.79625416	    -24.81167730	     13.19466652	     14.66710784	      0.00000000	     25.21168337	      3.40516405	     -2.67959897	    -11.89590770	     -3.62637698	    -12.11153510	      0.00000000	     -8.74679406	     -3.71540441	      8.52072469
      5.38500000	     -3.87911212	      2.98231725	     -7.03651560	      0.97582080	      1.00231235	     -0.21080945	    -11.56021606	     -3.53682253	     -1.59406806	    -26.55083165	     12.04239260	     15.22318448	      0.00000000	     25.73380173	      3.88701550	     -2.67692203	    -13.06589121	     -3.10221899	    -12.36773221	      0.00000000	     -8.32813094	     -4.18654630	      8.35553640
      5.39000000	     -3.92481015	      3.38796080	     -7.01537725	      0.98339405	      1.00241116	     -0.21133392	    -10.82015427	     -4.20874630	     -2.33958200	    -28.30061572	     10.72258562	     15.68191552	      0.00000000	     25.98463398	      4.35581190	     -2.86024898	    -14.16728151	     -2.32986141	    -12.33215485	      0.00000000	     -8.16752685	     -4.67867599	      8.20563512
      5.39500000	     -3.88476219	      3.79949377	     -6.97455305	      0.99087340	      1.00261953	     -0.21188339	    -10.12435226	     -4.90489616	     -3.06630864	    -30.08883282	      9.27149565	     16.01054901	      0.00000000	     26.10779018	      4.84178614	     -3.13334350	    -15.17825081	     -1.59019086	    -12.26769801	      0.00000000	     -8.13626160	     -5.17950935	      7.97174759
      5.40000000	     -4.13657194	      4.12540814	     -6.96663635	      0.99816547	      1.00242570	     -0.21233774	     -9.04006236	     -5.48123094	     -3.62457385	    -31.96737514	      7.70539410	     16.18943139	      0.00000000	     26.52123107	      5.16126033	     -3.50336453	    -16.17869824	     -0.68186183	    -11.96077277	      0.00000000	     -7.76919089	     -5.55783612	      7.86718332
      5.40500000	     -4.10610377	      4.55900986	     -6.91052066	      1.00561606	      1.00257893	     -0.21288223	     -8.26048223	     -6.20869556	     -4.23092681	    -33.80171045	      6.06248549	     16.26339689	      0.00000000	     26.53521986	      5.65583891	     -3.79143899	    -16.97168243	      0.13365607	    -11.71369622	      0.00000000	     -7.71884291	     -6.08845087	      7.65116448
      5.41000000	     -4.26291218	      4.91183074	     -6.91738698	      1.01281064	      1.00245558	     -0.21328853	     -7.20314682	     -6.82333849	     -4.63558031	    -35.70625835	      4.37716652	     16.14907521	      0.00000000	     26.74149092	      5.98907140	     -4.28882221	    -17.75510467	      1.06966304	    -11.30002613	      0.00000000	     -7.47310279	     -6.50646261	      7.52372721
      5.41500000	     -4.27174430	      5.35267019	     -6.87023612	      1.02015077	      1.00249551	     -0.21383181	     -6.31072880	     -7.55500102	     -5.06896751	    -37.57487708	      2.71990387	     16.02257486	      0.00000000	     26.70214225	      6.46645425	     -4.67733304	    -18.36175200	      1.93767070	    -10.91802034	      0.00000000	     -7.37957179	     -7.03097016	      7.32076235
      5.42000000	     -4.31737131	      5.78883682	     -6.85709180	      1.02734993	      1.00250562	     -0.21429451	     -5.33491676	     -8.25642894	     -5.33058843	    -39.45222536	      1.08261311	     15.74907189	      0.00000000	     26.67187306	      6.90503326	     -5.15481927	    -18.90222710	      2.79015006	    -10.44383124	      0.00000000	     -7.26070659	     -7.54583904	      7.14408073
      5.42500000	     -4.36581909	      6.22453313	     -6.84616062	      1.03446985	      1.00252034	     -0.21470819	     -4.33223998	     -8.93411461	     -5.49033253	    -41.31923559	     -0.48489107	     15.37071053	      0.00000000	     26.59720112	      7.33910282	     -5.62772925	    -19.34597267	      3.60430188	     -9.97352532	      0.00000000	     -7.14982401	     -8.06815345	      6.95644117
      5.43000000	     -4.45284561	      6.64412107	     -6.87439024	      1.04151961	      1.00245862	     -0.21510230	     -3.25264153	     -9.58236693	     -5.55384122	    -43.18972224	     -1.92757907	     14.89865143	      0.00000000	     26.52511463	      7.73657223	     -6.13016418	    -19.71712666	      4.45479227	     -9.48211031	      0.00000000	     -6.98607589	     -8.55314397	      6.84911264
